<svg width="2218" height="1429" viewBox="0 0 2218 1429" fill="none" xmlns="http://www.w3.org/2000/svg">
<path d="M8.04889 1428.79C-5.29094 1390.15 -27.851 1113.58 225.027 999.769C243.448 991.479 296.249 979.531 367.234 965.694C445.906 910.07 542.32 856.552 660.744 809.853C806.236 752.479 1043.34 804.433 1135.18 678.078C1141 618.064 1147.51 548.223 1196.39 476.169C1313.56 303.424 1418.81 293.265 1551.33 262.724C1621.02 246.664 1779.13 257.751 1905.16 181.181C2005.99 119.925 1929.32 35.0506 1939.59 0.73599L2217.63 240.817C2177.54 272.762 1983.16 394.244 1858.65 412.798C1703.02 435.991 1601.89 418.956 1495.01 428.538C1388.12 438.121 1278.84 480.438 1135.18 678.078C1127.05 761.945 1120.26 826.618 1001.1 851.309C853.827 881.826 550.156 930.035 367.234 965.694C82.721 1166.85 30.2629 1395.54 8.04889 1428.79Z" fill="white" fill-opacity="0.2"/>
</svg>
